<svg xmlns="http://www.w3.org/2000/svg" width="280" height="280" viewBox="0 0 280 280" fill="none">
  <path fill="#11b5d9" fill-rule="evenodd" d="M 180 260 L 187 261 L 189 260 L 192 257 L 196 255 L 198 255 L 200 254 L 206 256 L 209 259 L 215 262 L 221 262 L 230 258 L 230 255 L 223 259 L 220 260 L 217 260 L 212 258 L 205 253 L 202 252 L 197 252 L 192 254 L 189 257 L 185 259 Z M 41 259 L 42 261 L 52 261 L 54 260 L 60 255 L 64 254 L 68 254 L 71 255 L 76 259 L 83 262 L 89 262 L 93 261 L 98 257 L 102 255 L 110 255 L 120 261 L 130 261 L 130 259 L 121 259 L 117 257 L 115 255 L 111 253 L 107 252 L 104 252 L 100 253 L 93 258 L 88 260 L 84 260 L 81 259 L 77 257 L 74 254 L 69 252 L 62 252 L 57 254 L 54 257 L 50 259 Z M 161 246 L 159 246 L 157 247 L 154 250 L 154 255 L 155 257 L 157 258 L 161 258 L 163 257 L 165 255 L 165 249 L 163 247 Z M 159 248 L 161 248 L 164 252 L 163 254 L 161 256 L 156 255 L 155 253 L 156 251 Z M 171 198 L 168 200 L 167 202 L 167 205 L 168 207 L 170 209 L 175 209 L 177 208 L 178 206 L 178 201 L 176 199 L 174 198 Z M 175 201 L 176 205 L 174 207 L 170 206 L 169 204 L 170 202 Z M 96 198 L 93 200 L 92 202 L 92 205 L 93 207 L 95 209 L 100 209 L 103 206 L 103 201 L 101 199 L 99 198 Z M 100 201 L 101 205 L 99 207 L 95 206 L 94 203 Z M 135 136 L 133 138 L 133 141 L 136 144 L 138 144 L 140 143 L 141 141 L 141 139 L 140 137 Z M 137 137 L 139 139 L 138 142 L 136 142 L 134 140 L 135 138 Z M 29 109 L 27 110 L 25 112 L 24 114 L 24 120 L 25 122 L 27 124 L 30 125 L 34 125 L 36 124 L 38 122 L 39 120 L 39 114 L 38 112 L 36 110 L 33 109 Z M 32 111 L 34 112 L 37 115 L 37 119 L 34 122 L 31 123 L 29 122 L 26 119 L 26 115 L 29 112 Z M 170 100 L 170 105 L 172 107 L 175 107 L 177 106 L 177 102 L 176 99 L 172 99 Z M 174 100 L 176 102 L 175 105 L 171 104 L 171 102 Z M 206 80 L 204 81 L 203 86 L 203 121 L 204 122 L 204 125 L 206 125 L 206 123 L 208 121 L 209 119 L 211 111 L 211 92 L 209 86 L 207 83 Z M 207 89 L 209 95 L 209 109 L 205 114 L 205 91 Z M 67 80 L 63 87 L 61 96 L 61 108 L 63 117 L 66 122 L 66 125 L 69 124 L 70 116 L 70 92 L 69 84 Z M 66 90 L 68 98 L 68 111 L 66 115 L 64 112 L 63 105 L 63 99 L 64 92 Z M 25 69 L 22 70 L 17 75 L 15 80 L 15 84 L 18 90 L 20 92 L 24 94 L 31 94 L 34 93 L 39 88 L 40 85 L 40 78 L 38 74 L 35 71 L 30 69 Z M 24 72 L 31 72 L 33 73 L 37 77 L 38 80 L 38 84 L 37 86 L 32 91 L 30 92 L 26 92 L 23 91 L 19 87 L 18 85 L 18 78 L 20 75 L 22 73 Z M 136 62 L 133 65 L 133 68 L 136 71 L 133 73 L 129 73 L 126 74 L 120 77 L 117 80 L 116 80 L 114 82 L 114 83 L 111 86 L 109 90 L 107 96 L 107 100 L 105 102 L 103 99 L 99 99 L 97 100 L 97 105 L 99 107 L 102 107 L 107 105 L 107 110 L 109 116 L 111 120 L 114 123 L 114 124 L 116 126 L 117 126 L 120 129 L 129 133 L 138 134 L 148 132 L 154 129 L 162 121 L 165 116 L 167 110 L 167 96 L 164 88 L 159 81 L 154 77 L 148 74 L 145 73 L 141 73 L 138 71 L 141 68 L 141 65 L 138 62 Z M 155 124 L 153 126 L 146 130 L 141 131 L 132 131 L 128 130 L 122 127 L 119 123 L 137 105 Z M 101 100 L 103 102 L 102 105 L 98 104 L 98 102 Z M 158 85 L 161 88 L 164 94 L 165 98 L 165 108 L 162 116 L 160 119 L 157 121 L 139 103 Z M 117 85 L 135 103 L 116 121 L 113 118 L 110 112 L 109 108 L 109 98 L 110 94 L 113 88 Z M 122 79 L 128 76 L 132 75 L 142 75 L 146 76 L 152 79 L 155 83 L 138 100 L 136 100 L 119 82 Z M 136 64 L 138 64 L 140 66 L 139 68 L 135 68 Z M 132 57 L 127 58 L 118 61 L 114 63 L 107 68 L 103 72 L 98 79 L 94 87 L 92 94 L 91 103 L 92 112 L 94 119 L 98 127 L 102 133 L 107 138 L 114 143 L 123 147 L 133 149 L 142 149 L 151 147 L 160 143 L 166 139 L 171 134 L 175 129 L 180 119 L 182 112 L 183 103 L 182 94 L 180 87 L 175 77 L 172 73 L 166 67 L 160 63 L 151 59 L 141 57 Z M 130 60 L 144 60 L 154 63 L 161 67 L 165 70 L 170 75 L 175 82 L 177 86 L 179 92 L 180 97 L 180 109 L 179 114 L 177 120 L 173 127 L 170 131 L 166 135 L 158 141 L 152 144 L 144 146 L 130 146 L 120 143 L 113 139 L 108 135 L 104 131 L 101 127 L 96 117 L 94 109 L 94 97 L 95 92 L 101 79 L 109 70 L 116 65 L 120 63 Z M 46 37 L 42 39 L 41 40 L 41 41 L 39 43 L 39 51 L 40 53 L 43 56 L 45 57 L 52 57 L 54 56 L 57 53 L 58 51 L 58 43 L 56 41 L 56 40 L 55 39 L 51 37 Z M 48 39 L 50 39 L 52 40 L 55 43 L 56 45 L 56 50 L 51 55 L 46 55 L 41 50 L 41 45 L 42 43 L 45 40 Z M 111 18 L 107 22 L 106 24 L 105 28 L 105 31 L 106 32 L 106 35 L 104 37 L 101 39 L 98 40 L 91 45 L 82 54 L 75 64 L 72 71 L 64 72 L 62 74 L 61 74 L 60 75 L 60 76 L 58 78 L 56 83 L 55 88 L 54 101 L 55 115 L 56 120 L 59 128 L 64 133 L 72 135 L 73 138 L 76 142 L 77 159 L 74 162 L 71 163 L 67 163 L 59 165 L 57 165 L 51 168 L 50 169 L 48 173 L 48 179 L 45 182 L 44 182 L 39 186 L 32 193 L 28 198 L 22 209 L 19 217 L 18 222 L 21 221 L 23 213 L 28 203 L 34 195 L 42 187 L 46 184 L 50 184 L 51 189 L 53 194 L 60 207 L 67 217 L 81 230 L 82 232 L 80 234 L 76 235 L 73 238 L 68 241 L 61 241 L 57 239 L 53 235 L 48 233 L 41 233 L 37 235 L 31 240 L 29 241 L 22 241 L 18 242 L 20 243 L 26 244 L 30 243 L 34 241 L 37 238 L 40 236 L 43 235 L 47 235 L 50 236 L 56 241 L 60 243 L 69 243 L 72 242 L 78 237 L 83 235 L 86 235 L 102 244 L 117 249 L 129 251 L 139 248 L 125 248 L 116 246 L 107 243 L 96 238 L 88 233 L 83 229 L 71 217 L 64 208 L 58 198 L 53 187 L 52 184 L 51 177 L 50 176 L 50 174 L 51 172 L 53 170 L 58 167 L 61 168 L 61 172 L 62 176 L 66 187 L 70 195 L 79 208 L 90 219 L 100 226 L 110 231 L 115 233 L 123 235 L 130 236 L 145 236 L 151 235 L 152 234 L 157 235 L 152 240 L 152 241 L 146 247 L 144 250 L 143 253 L 143 258 L 145 263 L 149 267 L 154 269 L 159 269 L 164 267 L 169 262 L 179 249 L 187 240 L 189 240 L 194 243 L 204 243 L 209 240 L 212 237 L 216 235 L 220 235 L 223 236 L 226 238 L 229 241 L 233 243 L 237 243 L 238 244 L 241 244 L 248 242 L 250 241 L 252 239 L 257 237 L 254 236 L 252 236 L 248 239 L 244 241 L 234 241 L 226 235 L 222 233 L 214 233 L 210 235 L 206 239 L 202 241 L 195 241 L 191 239 L 190 237 L 191 235 L 196 230 L 201 223 L 207 217 L 212 211 L 216 205 L 226 193 L 238 192 L 243 197 L 249 206 L 252 212 L 254 220 L 255 222 L 257 222 L 257 220 L 254 211 L 249 201 L 247 198 L 244 195 L 244 194 L 242 192 L 245 190 L 247 190 L 252 187 L 258 181 L 260 178 L 263 170 L 264 161 L 263 156 L 262 154 L 259 153 L 251 161 L 251 162 L 244 169 L 240 169 L 236 168 L 232 166 L 231 164 L 231 161 L 229 158 L 229 155 L 244 140 L 243 136 L 239 135 L 231 135 L 224 137 L 220 139 L 217 141 L 213 145 L 208 154 L 207 157 L 207 162 L 205 164 L 200 163 L 196 161 L 195 159 L 196 144 L 201 135 L 209 133 L 213 129 L 215 125 L 217 118 L 218 111 L 218 93 L 217 86 L 215 79 L 213 76 L 210 73 L 208 72 L 203 72 L 201 70 L 197 61 L 191 53 L 184 46 L 176 40 L 171 38 L 169 36 L 168 36 L 168 30 L 166 22 L 162 18 L 158 16 L 115 16 Z M 64 168 L 66 166 L 69 165 L 74 165 L 82 174 L 88 178 L 94 181 L 105 185 L 113 187 L 126 189 L 147 189 L 155 188 L 168 185 L 181 180 L 189 175 L 198 165 L 202 165 L 205 166 L 207 168 L 208 174 L 209 176 L 204 182 L 195 191 L 173 216 L 167 224 L 163 228 L 159 230 L 148 233 L 138 234 L 126 233 L 121 232 L 112 229 L 102 224 L 91 216 L 81 206 L 71 191 L 68 185 L 65 177 L 64 173 Z M 77 164 L 79 162 L 81 162 L 84 165 L 91 169 L 98 172 L 107 175 L 122 178 L 152 178 L 163 176 L 173 173 L 190 165 L 192 167 L 191 169 L 187 173 L 181 177 L 172 181 L 166 183 L 157 185 L 141 187 L 136 187 L 122 186 L 107 183 L 98 180 L 85 173 L 78 166 Z M 78 155 L 80 148 L 85 154 L 95 160 L 105 164 L 118 167 L 126 168 L 148 168 L 156 167 L 165 165 L 177 161 L 186 156 L 193 149 L 194 156 L 193 158 L 189 162 L 186 164 L 174 170 L 160 174 L 147 176 L 128 176 L 114 174 L 100 170 L 91 166 L 83 161 L 79 157 Z M 239 138 L 240 140 L 228 152 L 227 157 L 229 165 L 231 169 L 233 170 L 244 172 L 246 171 L 261 158 L 261 169 L 257 178 L 249 186 L 243 189 L 239 190 L 227 189 L 215 202 L 201 220 L 173 252 L 169 258 L 162 265 L 160 266 L 152 266 L 150 264 L 149 264 L 148 263 L 148 262 L 146 260 L 145 257 L 145 255 L 147 250 L 160 235 L 168 227 L 175 219 L 181 211 L 189 203 L 195 195 L 211 178 L 211 175 L 209 170 L 209 158 L 210 155 L 214 148 L 220 142 L 228 138 L 233 137 L 237 137 Z M 202 74 L 206 74 L 208 75 L 212 79 L 214 83 L 215 87 L 216 99 L 216 105 L 215 116 L 214 121 L 211 127 L 207 131 L 204 132 L 202 132 L 200 131 L 197 128 L 195 123 L 194 117 L 194 92 L 195 84 L 198 77 L 200 75 Z M 66 74 L 71 74 L 75 78 L 77 82 L 78 88 L 78 120 L 77 125 L 75 129 L 73 131 L 66 131 L 63 129 L 63 128 L 61 126 L 58 119 L 57 113 L 57 90 L 58 85 L 61 78 L 64 75 Z M 97 44 L 103 40 L 109 38 L 113 41 L 117 42 L 156 42 L 160 41 L 164 38 L 166 38 L 172 41 L 178 45 L 185 51 L 193 60 L 199 70 L 198 74 L 197 74 L 196 75 L 194 79 L 192 88 L 192 120 L 194 128 L 195 130 L 199 134 L 195 142 L 192 146 L 184 154 L 177 158 L 163 163 L 153 165 L 142 166 L 130 166 L 115 164 L 101 160 L 91 155 L 87 152 L 82 147 L 77 140 L 74 133 L 78 129 L 79 127 L 80 123 L 81 114 L 81 96 L 80 85 L 78 78 L 74 72 L 79 63 L 84 56 L 92 48 Z M 108 27 L 109 24 L 113 20 L 118 18 L 134 18 L 136 21 L 134 27 L 115 27 L 116 30 L 120 29 L 121 30 L 124 30 L 125 29 L 152 29 L 153 30 L 158 29 L 158 27 L 138 26 L 138 20 L 140 18 L 155 18 L 160 20 L 163 23 L 165 27 L 165 32 L 164 34 L 160 38 L 158 39 L 115 39 L 113 38 L 109 34 L 108 32 Z"/>
</svg>