<svg xmlns="http://www.w3.org/2000/svg" width="280" height="280" viewBox="0 0 280 280" fill="none">
  <path fill="#11b5d9" fill-rule="evenodd" d="M 115 9 L 114 56 L 111 57 L 108 61 L 108 67 L 111 72 L 109 78 L 108 85 L 108 92 L 104 118 L 101 124 L 96 120 L 92 118 L 89 112 L 92 112 L 95 110 L 97 106 L 98 94 L 102 93 L 102 91 L 98 88 L 96 84 L 92 80 L 88 78 L 78 78 L 74 80 L 69 85 L 67 90 L 68 99 L 71 100 L 71 103 L 73 106 L 71 110 L 64 116 L 62 121 L 63 135 L 62 155 L 64 161 L 64 163 L 63 164 L 63 167 L 65 172 L 68 175 L 68 177 L 66 181 L 63 182 L 62 206 L 64 208 L 69 210 L 76 209 L 79 206 L 80 186 L 76 182 L 77 174 L 79 177 L 79 179 L 86 185 L 88 186 L 96 186 L 99 187 L 99 272 L 101 272 L 102 188 L 108 192 L 110 196 L 118 223 L 121 227 L 122 233 L 125 237 L 128 237 L 145 230 L 149 226 L 149 224 L 146 220 L 134 219 L 133 217 L 130 199 L 128 194 L 129 190 L 132 194 L 138 205 L 142 208 L 144 212 L 147 214 L 153 216 L 152 266 L 147 266 L 147 268 L 213 266 L 209 266 L 207 264 L 207 28 L 205 28 L 205 264 L 203 266 L 200 265 L 199 43 L 178 42 L 179 37 L 182 38 L 196 38 L 200 37 L 197 29 L 196 35 L 178 34 L 177 16 L 172 14 L 160 14 L 155 16 L 153 18 L 152 59 L 149 60 L 149 69 L 151 71 L 152 71 L 152 101 L 148 101 L 143 103 L 141 106 L 141 108 L 137 112 L 132 116 L 127 118 L 121 122 L 121 119 L 126 101 L 125 98 L 122 95 L 121 71 L 124 67 L 124 61 L 121 57 L 118 56 L 117 9 Z M 180 252 L 183 256 L 191 263 L 191 266 L 178 265 Z M 179 240 L 197 258 L 196 265 L 178 247 Z M 124 232 L 123 227 L 125 225 L 132 222 L 139 223 L 140 222 L 144 222 L 146 224 L 145 227 L 130 234 L 126 234 Z M 196 218 L 196 253 L 179 235 Z M 182 216 L 179 219 L 179 215 Z M 157 215 L 176 216 L 176 264 L 174 266 L 156 265 Z M 153 212 L 158 207 L 179 208 L 178 213 Z M 196 206 L 197 213 L 179 231 L 178 224 Z M 162 191 L 164 194 L 162 198 L 158 203 L 149 212 L 147 211 L 145 209 L 145 205 L 150 201 L 151 198 L 155 194 L 159 191 Z M 66 190 L 77 192 L 76 206 L 74 207 L 67 207 L 64 204 Z M 104 183 L 120 183 L 125 189 L 131 215 L 131 219 L 129 221 L 122 224 L 120 221 L 119 216 L 115 206 L 112 196 L 112 191 L 110 191 L 106 188 L 103 185 Z M 64 185 L 66 183 L 71 186 L 78 187 L 76 189 L 69 189 L 65 187 Z M 179 178 L 197 196 L 197 201 L 182 216 L 181 205 L 179 204 Z M 72 173 L 74 180 L 71 183 L 70 183 L 69 180 L 70 175 Z M 179 166 L 197 184 L 196 191 L 178 173 Z M 69 166 L 70 168 L 69 172 L 66 168 Z M 90 164 L 91 170 L 89 178 L 88 180 L 84 181 L 81 178 L 80 173 Z M 114 163 L 132 166 L 134 167 L 138 171 L 148 194 L 148 196 L 149 198 L 146 202 L 145 202 L 143 204 L 141 204 L 139 202 L 129 185 L 128 180 L 107 180 L 110 175 Z M 108 162 L 110 164 L 109 171 L 107 176 L 102 182 L 100 183 L 96 182 L 101 179 L 104 175 Z M 103 162 L 104 168 L 101 175 L 99 177 L 98 170 L 100 163 Z M 99 155 L 97 161 L 95 179 L 94 181 L 89 182 L 91 180 L 92 177 L 94 159 L 96 156 Z M 157 152 L 176 153 L 175 204 L 161 203 L 163 201 L 166 196 L 166 192 L 165 190 L 162 188 L 160 188 L 157 190 Z M 96 146 L 97 149 L 91 159 L 81 169 L 77 169 L 89 157 Z M 150 149 L 150 147 L 152 145 L 179 146 L 178 150 Z M 115 145 L 113 153 L 112 161 L 108 158 L 111 150 L 111 146 Z M 196 143 L 196 179 L 179 161 Z M 102 143 L 108 145 L 109 147 L 107 156 L 105 158 L 101 154 L 101 152 L 99 149 Z M 66 143 L 69 149 L 74 155 L 73 158 L 67 161 L 65 158 L 64 148 L 65 147 Z M 94 140 L 95 143 L 91 150 L 83 158 L 75 163 L 70 163 L 73 160 L 79 157 L 83 154 L 90 147 Z M 196 132 L 197 139 L 179 157 L 179 152 L 181 152 L 181 150 L 182 149 L 182 146 Z M 65 125 L 68 136 L 71 142 L 79 153 L 77 155 L 70 146 L 65 136 L 64 132 Z M 144 122 L 147 123 L 147 144 L 148 151 L 153 155 L 151 194 L 149 192 L 148 188 L 145 183 L 142 174 L 139 168 L 137 166 L 133 164 L 123 162 L 117 162 L 115 160 L 117 142 L 126 135 L 134 130 L 140 124 Z M 161 118 L 176 119 L 175 142 L 156 141 L 157 125 L 159 124 Z M 153 119 L 150 142 L 149 140 L 149 122 Z M 70 134 L 70 129 L 72 124 L 75 119 L 79 115 L 83 115 L 87 117 L 98 125 L 107 130 L 111 130 L 121 125 L 130 119 L 133 120 L 135 125 L 131 129 L 127 131 L 123 135 L 112 142 L 105 142 L 95 138 L 93 136 L 86 133 L 83 133 L 83 135 L 90 138 L 91 141 L 89 144 L 81 151 L 75 144 Z M 76 115 L 72 119 L 69 125 L 68 117 L 69 115 L 71 113 Z M 148 112 L 148 115 L 147 118 L 148 119 L 143 120 L 140 122 L 136 121 L 135 119 L 135 117 L 140 112 L 142 111 Z M 158 114 L 158 112 L 160 110 L 175 110 L 180 113 L 178 115 Z M 73 110 L 75 108 L 77 108 L 83 111 L 80 112 Z M 144 106 L 146 104 L 156 105 L 155 115 L 151 114 L 150 110 L 144 108 Z M 179 101 L 197 119 L 197 127 L 181 143 L 178 142 L 178 119 L 182 115 L 182 111 L 178 107 Z M 120 97 L 122 98 L 123 104 L 120 112 L 119 118 L 117 122 L 113 120 L 113 113 L 115 107 L 116 100 L 119 104 L 121 103 L 120 100 L 117 101 L 116 99 L 118 97 Z M 74 99 L 82 97 L 85 98 L 84 108 L 82 108 L 75 105 Z M 92 95 L 95 96 L 95 104 L 94 107 L 92 109 L 89 110 L 87 108 L 87 105 L 89 96 Z M 179 89 L 181 92 L 184 94 L 197 108 L 196 115 L 178 96 Z M 69 96 L 70 89 L 72 85 L 75 82 L 80 80 L 86 80 L 89 81 L 94 85 L 96 89 L 98 91 L 94 93 L 73 97 Z M 118 72 L 120 75 L 117 94 Z M 114 72 L 115 96 L 113 99 L 110 118 L 110 125 L 108 128 L 106 127 L 105 122 L 106 121 L 107 115 L 107 108 L 112 75 Z M 157 68 L 176 69 L 175 108 L 158 107 L 158 103 L 156 101 Z M 196 66 L 196 103 L 178 84 Z M 151 65 L 152 61 L 157 60 L 162 61 L 172 61 L 176 60 L 180 62 L 179 66 L 177 66 L 175 65 L 165 65 L 154 66 Z M 114 58 L 118 58 L 122 62 L 122 65 L 121 67 L 117 70 L 114 70 L 110 66 L 110 62 Z M 196 55 L 197 61 L 196 63 L 182 77 L 179 79 L 178 73 Z M 197 46 L 197 50 L 183 64 L 181 59 L 178 58 L 179 45 Z M 158 17 L 163 16 L 169 16 L 174 17 L 176 19 L 175 58 L 156 57 L 156 19 Z"/>
</svg>