<svg width="96" height="146" viewBox="0 0 209 334" fill="none" xmlns="http://www.w3.org/2000/svg" role="img" aria-label="Industrial rope access">
  <path fill="currentColor" fill-rule="evenodd" clip-rule="evenodd" d="
    M 96.0 5.0 L 89.0 9.0 L 85.0 13.0 L 82.0 19.0 L 82.0 21.0 L 81.0 22.0 L 81.0 31.0 L 82.0 32.0 L 82.0 35.0 L 86.0 42.0 L 89.0 45.0 L 89.0 47.0 L 87.0 49.0 L 86.0 49.0 L 83.0 53.0 L 83.0 70.0 L 84.0 72.0 L 88.0 75.0 L 88.0 91.0 L 87.0 92.0 L 87.0 114.0 L 86.0 115.0 L 86.0 139.0 L 85.0 140.0 L 85.0 165.0 L 84.0 166.0 L 84.0 183.0 L 80.0 186.0 L 77.0 186.0 L 72.0 181.0 L 68.0 179.0 L 58.0 171.0 L 55.0 170.0 L 49.0 165.0 L 50.0 163.0 L 52.0 163.0 L 58.0 157.0 L 60.0 153.0 L 60.0 151.0 L 61.0 150.0 L 61.0 146.0 L 62.0 145.0 L 61.0 143.0 L 61.0 137.0 L 60.0 136.0 L 60.0 133.0 L 61.0 132.0 L 65.0 132.0 L 66.0 131.0 L 66.0 128.0 L 64.0 126.0 L 64.0 125.0 L 61.0 123.0 L 61.0 121.0 L 58.0 115.0 L 49.0 106.0 L 43.0 103.0 L 39.0 103.0 L 38.0 102.0 L 28.0 102.0 L 27.0 103.0 L 24.0 103.0 L 16.0 107.0 L 9.0 114.0 L 6.0 120.0 L 6.0 122.0 L 5.0 123.0 L 5.0 127.0 L 4.0 128.0 L 4.0 132.0 L 5.0 133.0 L 5.0 143.0 L 6.0 145.0 L 11.0 145.0 L 12.0 146.0 L 12.0 148.0 L 13.0 149.0 L 13.0 151.0 L 15.0 155.0 L 22.0 162.0 L 24.0 163.0 L 24.0 164.0 L 22.0 166.0 L 21.0 166.0 L 14.0 173.0 L 12.0 177.0 L 11.0 182.0 L 10.0 183.0 L 10.0 195.0 L 11.0 196.0 L 12.0 205.0 L 13.0 206.0 L 13.0 209.0 L 14.0 210.0 L 14.0 213.0 L 15.0 214.0 L 15.0 218.0 L 16.0 219.0 L 16.0 222.0 L 17.0 223.0 L 18.0 230.0 L 20.0 234.0 L 19.0 236.0 L 20.0 237.0 L 20.0 240.0 L 21.0 241.0 L 21.0 244.0 L 22.0 245.0 L 22.0 248.0 L 23.0 249.0 L 23.0 255.0 L 24.0 256.0 L 25.0 262.0 L 30.0 271.0 L 37.0 278.0 L 44.0 282.0 L 50.0 283.0 L 51.0 284.0 L 65.0 284.0 L 69.0 282.0 L 73.0 282.0 L 74.0 281.0 L 77.0 281.0 L 78.0 280.0 L 81.0 280.0 L 82.0 281.0 L 82.0 297.0 L 81.0 298.0 L 81.0 324.0 L 80.0 325.0 L 80.0 329.0 L 85.0 329.0 L 85.0 302.0 L 86.0 301.0 L 86.0 279.0 L 89.0 277.0 L 96.0 276.0 L 97.0 275.0 L 103.0 274.0 L 107.0 272.0 L 110.0 272.0 L 114.0 270.0 L 119.0 270.0 L 120.0 271.0 L 120.0 307.0 L 121.0 308.0 L 121.0 329.0 L 126.0 329.0 L 126.0 326.0 L 125.0 325.0 L 125.0 297.0 L 124.0 296.0 L 124.0 271.0 L 123.0 270.0 L 124.0 268.0 L 126.0 268.0 L 128.0 270.0 L 131.0 276.0 L 133.0 278.0 L 134.0 281.0 L 142.0 292.0 L 143.0 295.0 L 145.0 297.0 L 148.0 303.0 L 153.0 308.0 L 157.0 309.0 L 159.0 312.0 L 159.0 316.0 L 160.0 317.0 L 160.0 319.0 L 162.0 323.0 L 167.0 327.0 L 174.0 327.0 L 200.0 314.0 L 203.0 311.0 L 204.0 305.0 L 202.0 301.0 L 199.0 298.0 L 195.0 296.0 L 190.0 296.0 L 189.0 297.0 L 187.0 297.0 L 183.0 299.0 L 180.0 299.0 L 178.0 297.0 L 178.0 294.0 L 179.0 293.0 L 178.0 292.0 L 178.0 288.0 L 177.0 286.0 L 175.0 284.0 L 172.0 278.0 L 168.0 273.0 L 163.0 263.0 L 157.0 255.0 L 156.0 252.0 L 154.0 250.0 L 153.0 247.0 L 151.0 245.0 L 149.0 241.0 L 144.0 236.0 L 143.0 236.0 L 139.0 233.0 L 137.0 233.0 L 136.0 232.0 L 131.0 232.0 L 130.0 231.0 L 126.0 231.0 L 125.0 232.0 L 123.0 231.0 L 123.0 224.0 L 122.0 223.0 L 122.0 207.0 L 121.0 206.0 L 121.0 184.0 L 127.0 177.0 L 127.0 175.0 L 128.0 174.0 L 128.0 164.0 L 126.0 160.0 L 124.0 158.0 L 120.0 156.0 L 120.0 138.0 L 119.0 137.0 L 119.0 90.0 L 118.0 89.0 L 118.0 44.0 L 121.0 41.0 L 125.0 34.0 L 125.0 31.0 L 126.0 30.0 L 126.0 24.0 L 125.0 23.0 L 124.0 17.0 L 122.0 15.0 L 122.0 14.0 L 115.0 7.0 L 111.0 6.0 L 110.0 5.0 L 107.0 5.0 L 106.0 4.0 Z
    M 113.0 47.0 L 114.0 48.0 L 114.0 101.0 L 115.0 102.0 L 115.0 146.0 L 116.0 147.0 L 116.0 155.0 L 114.0 157.0 L 111.0 158.0 L 106.0 163.0 L 106.0 164.0 L 103.0 168.0 L 103.0 170.0 L 101.0 172.0 L 99.0 172.0 L 97.0 174.0 L 94.0 175.0 L 90.0 179.0 L 89.0 179.0 L 88.0 178.0 L 88.0 172.0 L 89.0 171.0 L 89.0 142.0 L 90.0 141.0 L 90.0 121.0 L 91.0 120.0 L 91.0 100.0 L 92.0 99.0 L 92.0 75.0 L 94.0 73.0 L 95.0 73.0 L 98.0 69.0 L 98.0 52.0 L 96.0 51.0 L 95.0 49.0 L 96.0 48.0 L 98.0 49.0 L 108.0 49.0 L 109.0 48.0 Z
    M 87.0 238.0 L 88.0 237.0 L 111.0 237.0 L 112.0 236.0 L 131.0 236.0 L 132.0 237.0 L 138.0 238.0 L 140.0 240.0 L 141.0 240.0 L 145.0 244.0 L 145.0 245.0 L 151.0 253.0 L 152.0 256.0 L 154.0 258.0 L 155.0 261.0 L 157.0 263.0 L 161.0 271.0 L 163.0 273.0 L 166.0 279.0 L 168.0 281.0 L 169.0 284.0 L 171.0 286.0 L 174.0 292.0 L 174.0 294.0 L 173.0 295.0 L 172.0 299.0 L 169.0 302.0 L 165.0 304.0 L 163.0 304.0 L 162.0 305.0 L 158.0 305.0 L 156.0 304.0 L 151.0 299.0 L 150.0 296.0 L 148.0 294.0 L 147.0 291.0 L 141.0 283.0 L 140.0 280.0 L 136.0 275.0 L 135.0 272.0 L 133.0 270.0 L 131.0 266.0 L 128.0 263.0 L 122.0 263.0 L 121.0 264.0 L 118.0 264.0 L 114.0 266.0 L 111.0 266.0 L 110.0 267.0 L 108.0 267.0 L 104.0 269.0 L 101.0 269.0 L 100.0 270.0 L 94.0 271.0 L 93.0 270.0 L 93.0 260.0 L 92.0 259.0 L 91.0 252.0 L 89.0 249.0 L 89.0 246.0 L 87.0 243.0 Z
    M 26.0 231.0 L 27.0 227.0 L 28.0 226.0 L 28.0 222.0 L 29.0 221.0 L 29.0 218.0 L 30.0 217.0 L 30.0 213.0 L 31.0 212.0 L 31.0 209.0 L 32.0 208.0 L 32.0 204.0 L 33.0 203.0 L 33.0 200.0 L 34.0 199.0 L 34.0 195.0 L 35.0 194.0 L 36.0 187.0 L 37.0 186.0 L 37.0 184.0 L 39.0 180.0 L 44.0 175.0 L 46.0 175.0 L 47.0 174.0 L 53.0 174.0 L 60.0 179.0 L 61.0 179.0 L 64.0 182.0 L 65.0 182.0 L 68.0 185.0 L 72.0 187.0 L 78.0 192.0 L 82.0 191.0 L 86.0 187.0 L 87.0 187.0 L 90.0 184.0 L 91.0 184.0 L 101.0 176.0 L 103.0 176.0 L 109.0 183.0 L 110.0 187.0 L 104.0 193.0 L 104.0 194.0 L 88.0 210.0 L 82.0 213.0 L 77.0 213.0 L 76.0 212.0 L 74.0 212.0 L 70.0 210.0 L 68.0 208.0 L 65.0 207.0 L 63.0 205.0 L 60.0 204.0 L 52.0 198.0 L 49.0 198.0 L 48.0 199.0 L 48.0 201.0 L 50.0 203.0 L 56.0 206.0 L 61.0 210.0 L 64.0 211.0 L 70.0 216.0 L 71.0 223.0 L 70.0 224.0 L 67.0 224.0 L 66.0 225.0 L 56.0 226.0 L 55.0 227.0 L 51.0 227.0 L 50.0 228.0 L 46.0 228.0 L 45.0 229.0 L 42.0 229.0 L 41.0 230.0 L 36.0 230.0 L 35.0 231.0 L 31.0 231.0 L 30.0 232.0 L 27.0 232.0 Z
    M 74.0 240.0 L 74.0 242.0 L 68.0 254.0 L 68.0 256.0 L 64.0 263.0 L 64.0 265.0 L 62.0 268.0 L 62.0 270.0 L 57.0 279.0 L 52.0 279.0 L 51.0 278.0 L 48.0 278.0 L 42.0 275.0 L 35.0 269.0 L 35.0 268.0 L 33.0 266.0 L 29.0 259.0 L 29.0 256.0 L 28.0 255.0 L 28.0 249.0 L 29.0 248.0 L 40.0 247.0 L 44.0 245.0 L 53.0 244.0 L 54.0 243.0 L 57.0 243.0 L 58.0 242.0 L 61.0 242.0 L 62.0 241.0 L 66.0 241.0 L 67.0 240.0 L 71.0 240.0 L 72.0 239.0 Z
    M 9.0 133.0 L 9.0 128.0 L 10.0 127.0 L 10.0 124.0 L 15.0 115.0 L 19.0 111.0 L 27.0 107.0 L 39.0 107.0 L 40.0 108.0 L 42.0 108.0 L 46.0 110.0 L 54.0 118.0 L 57.0 125.0 L 59.0 127.0 L 58.0 129.0 L 56.0 129.0 L 55.0 130.0 L 51.0 130.0 L 50.0 131.0 L 47.0 131.0 L 46.0 132.0 L 37.0 133.0 L 33.0 135.0 L 25.0 136.0 L 24.0 137.0 L 20.0 137.0 L 19.0 138.0 L 16.0 138.0 L 15.0 139.0 L 11.0 139.0 L 10.0 138.0 L 10.0 134.0 Z
    M 116.0 189.0 L 117.0 190.0 L 118.0 231.0 L 117.0 232.0 L 87.0 233.0 L 86.0 232.0 L 86.0 217.0 L 92.0 212.0 L 93.0 212.0 L 104.0 201.0 L 104.0 200.0 L 115.0 189.0 Z
    M 99.0 9.0 L 108.0 9.0 L 112.0 11.0 L 118.0 16.0 L 120.0 20.0 L 120.0 22.0 L 121.0 23.0 L 121.0 30.0 L 120.0 31.0 L 119.0 35.0 L 114.0 41.0 L 113.0 41.0 L 109.0 44.0 L 105.0 44.0 L 103.0 45.0 L 102.0 44.0 L 98.0 44.0 L 95.0 42.0 L 98.0 35.0 L 101.0 32.0 L 101.0 30.0 L 98.0 30.0 L 94.0 34.0 L 92.0 38.0 L 90.0 38.0 L 88.0 36.0 L 87.0 32.0 L 86.0 31.0 L 86.0 22.0 L 87.0 21.0 L 87.0 19.0 L 93.0 12.0 Z
    M 57.0 140.0 L 57.0 148.0 L 56.0 149.0 L 55.0 153.0 L 49.0 159.0 L 47.0 159.0 L 44.0 161.0 L 29.0 161.0 L 27.0 159.0 L 26.0 159.0 L 19.0 152.0 L 18.0 148.0 L 16.0 145.0 L 17.0 143.0 L 20.0 143.0 L 24.0 141.0 L 27.0 141.0 L 28.0 140.0 L 31.0 140.0 L 32.0 139.0 L 35.0 139.0 L 36.0 138.0 L 45.0 137.0 L 46.0 136.0 L 49.0 136.0 L 50.0 135.0 L 53.0 135.0 L 54.0 134.0 L 56.0 135.0 L 56.0 139.0 Z
    M 42.0 166.0 L 44.0 167.0 L 46.0 169.0 L 46.0 170.0 L 45.0 171.0 L 43.0 171.0 L 39.0 173.0 L 34.0 179.0 L 34.0 181.0 L 32.0 184.0 L 32.0 188.0 L 31.0 189.0 L 31.0 192.0 L 30.0 193.0 L 30.0 197.0 L 28.0 201.0 L 27.0 211.0 L 26.0 212.0 L 26.0 215.0 L 25.0 216.0 L 24.0 224.0 L 22.0 225.0 L 21.0 224.0 L 20.0 215.0 L 18.0 211.0 L 17.0 201.0 L 16.0 200.0 L 16.0 197.0 L 15.0 196.0 L 15.0 183.0 L 16.0 182.0 L 16.0 180.0 L 18.0 176.0 L 25.0 169.0 L 26.0 169.0 L 28.0 167.0 L 30.0 167.0 L 31.0 166.0 Z
    M 81.0 238.0 L 83.0 241.0 L 83.0 244.0 L 84.0 245.0 L 84.0 247.0 L 86.0 251.0 L 86.0 254.0 L 88.0 258.0 L 88.0 263.0 L 89.0 264.0 L 89.0 272.0 L 85.0 274.0 L 82.0 274.0 L 81.0 275.0 L 78.0 275.0 L 74.0 277.0 L 71.0 277.0 L 70.0 278.0 L 67.0 278.0 L 65.0 279.0 L 64.0 278.0 L 64.0 276.0 L 67.0 271.0 L 67.0 269.0 L 69.0 266.0 L 69.0 264.0 L 71.0 261.0 L 71.0 259.0 L 73.0 256.0 L 73.0 254.0 L 77.0 246.0 L 78.0 241.0 L 79.0 239.0 Z
    M 199.0 305.0 L 199.0 308.0 L 197.0 310.0 L 171.0 323.0 L 169.0 323.0 L 165.0 319.0 L 164.0 317.0 L 163.0 310.0 L 164.0 309.0 L 166.0 309.0 L 170.0 307.0 L 175.0 302.0 L 177.0 302.0 L 178.0 303.0 L 185.0 303.0 L 189.0 301.0 L 195.0 301.0 Z
    M 74.0 232.0 L 74.0 233.0 L 72.0 235.0 L 64.0 236.0 L 63.0 237.0 L 60.0 237.0 L 59.0 238.0 L 56.0 238.0 L 55.0 239.0 L 51.0 239.0 L 50.0 240.0 L 47.0 240.0 L 46.0 241.0 L 42.0 241.0 L 41.0 242.0 L 38.0 242.0 L 37.0 243.0 L 34.0 243.0 L 33.0 244.0 L 29.0 244.0 L 28.0 245.0 L 26.0 244.0 L 26.0 241.0 L 25.0 240.0 L 25.0 238.0 L 29.0 236.0 L 34.0 236.0 L 35.0 235.0 L 39.0 235.0 L 40.0 234.0 L 44.0 234.0 L 45.0 233.0 L 48.0 233.0 L 49.0 232.0 L 54.0 232.0 L 55.0 231.0 L 58.0 231.0 L 59.0 230.0 L 64.0 230.0 L 65.0 229.0 L 69.0 229.0 L 70.0 228.0 L 72.0 228.0 Z
    M 119.0 161.0 L 121.0 162.0 L 124.0 166.0 L 124.0 172.0 L 123.0 173.0 L 123.0 175.0 L 115.0 183.0 L 114.0 183.0 L 112.0 179.0 L 107.0 174.0 L 107.0 171.0 L 109.0 169.0 L 110.0 166.0 L 114.0 162.0 L 116.0 161.0 Z
    M 88.0 52.0 L 90.0 53.0 L 93.0 52.0 L 94.0 53.0 L 94.0 69.0 L 93.0 70.0 L 88.0 70.0 L 87.0 69.0 L 87.0 53.0 Z
    M 76.0 217.0 L 80.0 217.0 L 82.0 219.0 L 82.0 232.0 L 81.0 233.0 L 79.0 233.0 L 77.0 229.0 L 77.0 225.0 L 75.0 221.0 L 75.0 218.0 Z
    M 46.0 116.0 L 47.0 119.0 L 48.0 120.0 L 50.0 120.0 L 49.0 117.0 Z
  "/>
</svg>
