<svg width="96" height="96" viewBox="0 0 235 225" fill="none" xmlns="http://www.w3.org/2000/svg" role="img" aria-label="Commercial diving">
  <path
    d="M 22 202 L 22 205 L 33 211 L 45 211 L 58 204 L 64 204 L 77 211 L 82 211 L 83 212 L 89 211 L 97 206 L 103 204 L 109 204 L 122 211 L 132 211 L 143 205 L 152 204 L 161 208 L 163 210 L 170 212 L 178 211 L 189 205 L 189 202 L 186 202 L 176 208 L 168 208 L 154 201 L 144 201 L 131 208 L 123 208 L 110 201 L 101 201 L 94 204 L 90 207 L 80 208 L 66 201 L 56 201 L 43 208 L 35 208 L 24 202 Z
      M 102 145 L 98 147 L 93 152 L 91 159 L 94 167 L 97 170 L 104 173 L 108 173 L 113 171 L 118 166 L 120 161 L 120 156 L 119 153 L 114 147 L 110 145 Z
      M 104 148 L 109 148 L 111 149 L 116 155 L 116 162 L 115 164 L 109 169 L 103 169 L 101 168 L 95 161 L 95 156 L 96 154 L 101 149 Z
      M 105 132 L 104 133 L 97 134 L 86 141 L 80 153 L 80 163 L 82 170 L 91 180 L 101 184 L 111 184 L 122 179 L 129 171 L 131 166 L 131 151 L 127 143 L 122 138 L 115 134 Z
      M 92 140 L 101 136 L 110 136 L 118 139 L 125 146 L 128 153 L 128 163 L 125 171 L 119 177 L 116 179 L 109 181 L 102 181 L 96 179 L 87 171 L 84 165 L 83 156 L 87 146 Z
      M 192 87 L 188 89 L 184 94 L 184 101 L 189 107 L 191 108 L 198 108 L 205 102 L 205 94 L 200 88 Z
      M 193 90 L 196 90 L 200 92 L 202 95 L 202 100 L 201 102 L 197 105 L 193 105 L 187 100 L 188 94 Z
      M 50 81 L 46 82 L 42 86 L 42 122 L 47 134 L 51 138 L 56 141 L 56 153 L 41 160 L 30 163 L 26 168 L 26 177 L 27 180 L 31 184 L 33 184 L 35 187 L 38 186 L 38 176 L 42 167 L 42 164 L 45 161 L 57 157 L 63 164 L 68 166 L 70 168 L 72 168 L 71 167 L 71 163 L 67 162 L 61 156 L 61 153 L 59 150 L 59 145 L 60 144 L 62 144 L 69 151 L 71 151 L 72 149 L 65 142 L 61 136 L 55 117 L 53 117 L 52 120 L 55 130 L 57 133 L 57 136 L 55 137 L 48 129 L 46 117 L 47 116 L 49 117 L 50 115 L 48 114 L 46 111 L 46 92 L 45 90 L 47 85 L 50 83 Z
      M 38 164 L 39 167 L 37 169 L 35 174 L 35 180 L 32 182 L 30 177 L 30 169 L 32 166 Z
      M 62 87 L 61 90 L 61 111 L 62 112 L 62 115 L 68 122 L 74 125 L 77 125 L 78 126 L 87 125 L 95 120 L 100 115 L 107 113 L 112 115 L 120 123 L 128 126 L 133 126 L 134 125 L 137 125 L 146 120 L 151 112 L 151 91 L 149 86 L 143 80 L 140 79 L 129 78 L 128 77 L 120 77 L 119 76 L 94 76 L 93 77 L 77 78 L 70 80 Z
      M 64 91 L 69 84 L 73 82 L 84 81 L 85 80 L 115 79 L 116 80 L 125 80 L 126 81 L 138 82 L 144 85 L 147 90 L 147 113 L 146 115 L 139 121 L 128 123 L 123 121 L 113 112 L 108 110 L 103 110 L 97 113 L 90 120 L 86 122 L 79 123 L 70 119 L 65 113 L 64 110 Z
      M 53 113 L 55 114 L 55 90 L 57 84 L 65 75 L 69 73 L 76 71 L 81 71 L 82 70 L 91 70 L 92 69 L 120 69 L 121 70 L 128 70 L 129 71 L 139 72 L 145 74 L 151 79 L 152 77 L 148 72 L 144 70 L 137 68 L 133 68 L 132 67 L 124 67 L 123 66 L 88 66 L 87 67 L 81 67 L 80 68 L 75 68 L 68 70 L 64 72 L 57 78 L 52 87 L 52 109 L 53 110 Z
      M 205 52 L 196 57 L 193 65 L 194 66 L 194 69 L 197 74 L 202 77 L 211 77 L 217 72 L 219 68 L 219 63 L 217 58 L 213 54 L 208 52 Z
      M 203 56 L 210 56 L 215 61 L 216 64 L 215 69 L 210 74 L 203 74 L 201 73 L 197 68 L 197 62 L 198 60 Z
      M 70 44 L 62 52 L 55 64 L 52 73 L 52 76 L 56 73 L 58 66 L 64 55 L 75 44 L 86 38 L 93 36 L 97 36 L 98 35 L 114 35 L 115 36 L 119 36 L 135 43 L 147 54 L 154 66 L 156 75 L 159 80 L 159 83 L 158 84 L 155 84 L 157 89 L 157 117 L 156 118 L 156 124 L 149 139 L 144 145 L 140 148 L 140 151 L 145 149 L 147 146 L 152 142 L 154 145 L 152 156 L 148 160 L 140 164 L 140 168 L 151 162 L 155 157 L 164 160 L 170 163 L 173 166 L 177 178 L 177 186 L 179 186 L 184 177 L 184 173 L 185 172 L 184 167 L 181 164 L 170 160 L 165 157 L 163 157 L 157 153 L 157 145 L 154 137 L 158 129 L 160 120 L 162 118 L 166 117 L 170 113 L 170 86 L 169 84 L 164 81 L 162 81 L 160 79 L 158 67 L 153 57 L 148 50 L 136 40 L 126 35 L 120 33 L 116 33 L 115 32 L 96 32 L 95 33 L 92 33 L 81 37 Z
      M 176 166 L 178 166 L 181 169 L 181 176 L 179 177 L 177 174 L 177 171 L 175 168 Z
      M 159 83 L 165 85 L 167 88 L 167 111 L 163 115 L 160 114 L 160 88 L 158 85 Z
      M 184 22 L 178 26 L 176 30 L 176 35 L 179 40 L 182 42 L 187 43 L 192 41 L 196 36 L 196 29 L 192 24 L 188 22 Z
      M 183 26 L 189 26 L 193 30 L 193 35 L 187 40 L 183 39 L 180 36 L 179 33 L 180 29 Z"
    fill="currentColor"
    fill-rule="evenodd"
    clip-rule="evenodd"
  />
</svg>
