<svg width="128" height="128" viewBox="0 0 230 230" xmlns="http://www.w3.org/2000/svg" role="img" aria-label="Beyond integrated solutions">
  <path d="M 67 176 L 67 178 L 69 180 L 73 181 L 74 182 L 77 182 L 78 181 L 83 180 L 86 178 L 89 178 L 97 182 L 103 182 L 111 178 L 115 180 L 117 180 L 120 182 L 126 182 L 133 178 L 138 178 L 146 182 L 153 181 L 156 179 L 156 176 L 155 175 L 150 178 L 145 178 L 137 174 L 133 174 L 126 178 L 121 178 L 113 174 L 107 175 L 102 178 L 96 178 L 89 174 L 83 175 L 78 178 L 73 178 L 70 176 Z M 132 118 L 132 120 L 131 121 L 131 126 L 130 127 L 130 131 L 133 131 L 136 129 L 138 131 L 141 131 L 142 130 L 142 128 L 139 126 L 135 127 L 132 125 L 133 124 L 136 124 L 137 123 L 137 117 L 134 117 Z M 62 161 L 62 164 L 66 165 L 69 167 L 77 167 L 78 166 L 80 166 L 84 164 L 89 164 L 94 167 L 98 167 L 99 168 L 100 167 L 103 167 L 105 165 L 107 165 L 108 164 L 115 164 L 123 168 L 128 167 L 133 164 L 139 164 L 140 165 L 142 165 L 146 167 L 154 167 L 157 165 L 161 164 L 161 161 L 158 161 L 157 162 L 155 162 L 151 164 L 149 164 L 145 162 L 146 158 L 155 141 L 155 138 L 124 138 L 123 137 L 123 108 L 125 106 L 126 106 L 126 103 L 125 102 L 114 102 L 113 101 L 113 95 L 114 94 L 117 97 L 119 96 L 119 94 L 118 93 L 116 93 L 115 94 L 113 92 L 113 89 L 114 88 L 113 86 L 110 86 L 109 88 L 110 89 L 110 91 L 108 94 L 107 93 L 105 93 L 104 94 L 104 97 L 105 98 L 106 96 L 109 96 L 110 97 L 110 101 L 108 103 L 107 102 L 98 102 L 97 103 L 97 106 L 98 106 L 100 108 L 100 137 L 99 138 L 95 138 L 96 140 L 95 141 L 96 142 L 104 142 L 105 141 L 106 142 L 112 142 L 113 141 L 117 141 L 117 138 L 104 138 L 103 137 L 103 107 L 104 106 L 119 106 L 120 107 L 120 142 L 131 142 L 132 141 L 134 141 L 135 142 L 147 142 L 149 141 L 150 142 L 143 156 L 142 160 L 141 161 L 139 160 L 132 160 L 124 164 L 118 161 L 116 161 L 115 160 L 107 160 L 99 164 L 95 163 L 90 160 L 82 160 L 80 158 L 78 154 L 78 152 L 76 150 L 73 144 L 73 142 L 74 141 L 75 142 L 78 142 L 79 141 L 86 141 L 86 122 L 87 121 L 89 121 L 92 123 L 92 125 L 93 126 L 93 130 L 93 118 L 92 117 L 83 117 L 83 119 L 82 120 L 82 135 L 83 136 L 81 138 L 68 138 L 68 142 L 71 146 L 71 148 L 73 150 L 78 162 L 75 164 L 72 164 L 66 161 Z M 111 36 L 110 37 L 110 52 L 109 53 L 104 53 L 103 54 L 96 54 L 95 55 L 92 55 L 88 57 L 82 58 L 70 64 L 68 66 L 64 68 L 49 82 L 49 83 L 46 86 L 43 92 L 41 94 L 38 100 L 38 102 L 35 107 L 34 113 L 33 114 L 33 117 L 32 118 L 32 122 L 31 123 L 31 132 L 30 133 L 14 133 L 14 136 L 15 137 L 30 137 L 31 138 L 31 147 L 32 148 L 32 152 L 33 153 L 33 156 L 34 157 L 34 160 L 36 163 L 36 165 L 42 177 L 44 179 L 46 183 L 49 186 L 49 187 L 61 199 L 62 199 L 65 202 L 71 205 L 73 207 L 79 210 L 81 210 L 84 212 L 86 212 L 90 214 L 93 214 L 94 215 L 98 215 L 99 216 L 108 216 L 110 218 L 110 229 L 113 229 L 113 218 L 115 216 L 123 216 L 124 215 L 128 215 L 129 214 L 132 214 L 133 213 L 139 212 L 142 210 L 144 210 L 150 207 L 152 205 L 155 204 L 161 199 L 162 199 L 174 187 L 174 186 L 177 183 L 177 182 L 181 177 L 187 165 L 187 163 L 188 162 L 188 160 L 190 156 L 190 153 L 191 152 L 191 148 L 192 147 L 192 138 L 193 137 L 208 137 L 209 136 L 209 134 L 208 133 L 193 133 L 192 132 L 192 123 L 191 122 L 191 118 L 190 117 L 190 114 L 189 113 L 189 110 L 188 109 L 187 104 L 181 92 L 179 90 L 177 86 L 173 82 L 173 81 L 159 68 L 158 68 L 153 64 L 143 59 L 141 59 L 138 57 L 132 56 L 131 55 L 127 55 L 126 54 L 120 54 L 119 53 L 114 53 L 113 52 L 113 37 Z M 102 57 L 108 57 L 110 59 L 110 73 L 111 74 L 113 73 L 113 58 L 114 57 L 122 57 L 123 58 L 127 58 L 128 59 L 131 59 L 132 60 L 140 62 L 150 67 L 152 69 L 159 73 L 172 86 L 172 87 L 177 93 L 183 105 L 183 107 L 186 113 L 186 116 L 187 117 L 187 122 L 188 123 L 188 129 L 189 130 L 189 131 L 187 133 L 172 133 L 172 136 L 173 137 L 187 137 L 188 138 L 188 147 L 187 148 L 187 152 L 186 153 L 186 156 L 185 157 L 184 162 L 182 165 L 182 167 L 180 171 L 178 173 L 177 176 L 172 182 L 172 183 L 159 196 L 158 196 L 155 199 L 154 199 L 149 203 L 141 207 L 139 207 L 136 209 L 134 209 L 133 210 L 125 211 L 124 212 L 117 212 L 116 213 L 115 213 L 113 211 L 113 197 L 111 196 L 110 197 L 110 211 L 108 213 L 107 212 L 99 212 L 98 211 L 94 211 L 93 210 L 87 209 L 84 207 L 82 207 L 74 203 L 72 201 L 69 200 L 65 196 L 64 196 L 51 183 L 51 182 L 48 179 L 45 173 L 43 171 L 41 167 L 41 165 L 39 162 L 37 154 L 36 153 L 36 149 L 35 148 L 35 140 L 34 139 L 35 137 L 50 137 L 51 136 L 51 133 L 36 133 L 35 132 L 35 123 L 36 122 L 36 117 L 37 116 L 38 110 L 40 107 L 40 105 L 45 95 L 47 93 L 49 89 L 52 86 L 52 85 L 64 73 L 65 73 L 73 67 L 81 63 L 83 63 L 86 61 L 88 61 L 92 59 L 95 59 L 96 58 L 101 58 Z" fill="currentColor" fill-rule="evenodd" clip-rule="evenodd"/>
</svg>
