<svg xmlns="http://www.w3.org/2000/svg" viewBox="0 0 1295.43 881.575" width="300" height="204.16" fill="currentColor" aria-label="VORTEXES logo"><path d="M384.2724,244.5159 L383.6703,245.1180 L383.6703,246.9268 L384.2724,248.1313 L385.4792,248.7334 L389.6968,248.7334 L390.9011,248.1313 L391.5032,247.5291 L391.5032,245.1180 L390.9011,244.5159 L389.0945,243.9137 L384.8769,243.9137 L384.2724,244.5159 Z" fill-rule="evenodd" /><path d="M351.1317,245.7225 C351.1317,251.7489 353.5834,250.5424 361.3757,250.5424 C362.2576,249.6603 361.8330,250.0127 363.1846,249.3357 L363.1846,241.5026 C359.8621,238.1810 354.1028,242.7514 351.1317,245.7225 Z" fill-rule="evenodd" /><path d="M367.4022,249.9401 C367.8666,252.2752 380.2881,253.1493 381.8638,249.3357 L381.8638,243.9137 C380.4490,243.2076 381.0021,243.6564 380.0550,242.7093 C364.8434,242.7093 367.4022,243.6365 367.4022,249.9401 Z" fill-rule="evenodd" /><path d="M291.4788,289.7072 L291.4788,289.1050 L290.8766,289.1050 L290.8766,289.7072 L291.4788,289.7072 Z" fill-rule="evenodd" /><path d="M291.4788,308.3864 C301.5193,308.2103 297.2274,304.0861 298.7605,299.3236 L299.9161,295.7337 C300.3932,294.2516 290.3279,293.4545 286.6589,298.7468 C284.4972,301.8648 286.0908,308.3864 291.4788,308.3864 Z" fill-rule="evenodd" /><path d="M304.7360,305.9776 C305.1687,306.8432 306.3151,308.0428 307.1471,308.3864 C330.8139,308.3864 304.7360,283.0433 304.7360,305.9776 Z" fill-rule="evenodd" /><path d="M279.4281,300.5534 C277.0107,301.7622 275.8127,303.9814 275.8127,306.5798 C277.3910,308.1581 276.6126,307.6831 279.4281,308.3864 L277.0171,309.5930 C270.4410,316.1711 278.5046,325.5754 285.4546,322.8480 C287.2800,322.1318 287.1606,320.1990 285.4546,319.2326 C281.8920,317.2144 278.2785,317.2566 280.6325,313.8106 C282.2404,311.4566 286.3691,310.1295 284.2480,309.5930 L281.7488,308.9608 C283.1533,306.5747 283.6458,302.7154 283.6458,299.9511 C282.3892,298.6949 281.6047,299.4650 279.4281,300.5534 Z" fill-rule="evenodd" /><path d="M308.3514,322.8480 C310.5775,325.9634 324.0173,322.9693 324.0173,321.6437 C324.0173,314.8088 320.5639,313.7279 319.1976,318.0283 C318.7636,319.3945 313.8340,324.6249 314.8966,318.0166 C315.9592,311.4084 299.1029,309.9045 308.3514,322.8480 Z" fill-rule="evenodd" /><path d="M298.1073,323.4502 C301.0897,323.5647 304.7147,322.5177 304.1338,319.8347 C303.1428,315.2578 295.0942,323.1935 295.0942,315.0150 C299.0643,315.0150 302.3250,316.3047 302.3250,313.8106 L302.3250,311.3996 C302.3250,310.8144 285.9723,305.0588 288.4679,320.4393 C288.9940,323.6812 291.3206,322.9284 298.1073,323.4502 Z" fill-rule="evenodd" /><path d="M279.4281,326.4634 C275.5384,327.8073 286.7974,337.1849 287.8634,333.0919 C290.0037,324.8730 287.1542,323.7939 279.4281,326.4634 Z" fill-rule="evenodd" /><path d="M310.1578,334.2964 C312.4801,336.6089 316.7865,334.1533 316.7865,331.2855 L316.7865,328.2722 C316.7865,325.4816 313.4694,327.0113 311.3646,326.4634 C307.1360,325.3627 307.8566,331.9947 310.1578,334.2964 Z" fill-rule="evenodd" /><path d="M293.2876,334.8985 L296.3008,335.5030 L302.3250,336.1052 C305.2631,336.1052 308.6280,333.8101 306.5425,331.8876 C305.8015,331.2045 305.1478,330.5857 304.0945,330.5999 L298.1073,330.6810 C297.7058,330.4802 296.0796,330.8264 296.9030,330.0788 C297.7264,329.3312 300.1968,329.8214 302.3250,329.4765 C305.9047,328.2850 305.4722,324.6568 302.3250,324.6568 L296.3008,324.6568 C290.4774,324.6568 288.5977,330.2099 293.2876,334.8985 Z" fill-rule="evenodd" /><path d="M370.4153,316.8239 C373.8551,320.2637 377.1243,323.5327 380.6570,327.0656 L381.8638,327.6701 L382.4658,328.2722 L385.4792,328.2722 L385.4792,331.8876 C388.9075,335.3159 394.9548,342.2888 400.5430,339.1184 C401.4154,338.6234 402.7016,337.1635 401.1451,336.1052 C397.3944,333.5555 392.5191,327.9222 399.3362,318.6303 C400.0750,317.6235 399.3222,315.5192 396.9276,316.2193 C396.4246,316.3663 390.1952,325.1178 386.1185,327.1560 L385.4792,325.8611 L384.8769,325.2590 L384.2724,324.6568 C383.3275,323.7136 383.7708,324.2561 383.0681,322.8480 C381.0900,322.8480 381.3228,319.9971 380.6570,318.0283 C379.9301,314.1886 387.3373,301.1556 383.6703,301.1556 L381.2615,301.1556 C378.6826,301.1556 370.4153,310.6646 370.4153,316.8239 Z" fill-rule="evenodd" /><path d="M340.8900,348.1557 C344.9600,348.9693 348.7192,350.5547 350.5296,354.1822 C353.2846,354.1822 354.3749,354.5528 355.3515,353.5801 C355.3515,352.9439 355.0774,351.7028 354.7470,351.1690 C350.2981,346.7189 348.4588,340.0586 344.5053,336.1052 C339.9083,336.1052 340.8900,337.4921 340.8900,348.1557 Z" fill-rule="evenodd" /><path d="M264.9666,387.3229 C264.9666,391.0021 269.7887,392.2192 269.7887,387.3229 L269.7887,386.1164 L271.5953,385.5141 C272.1973,385.5141 283.6304,386.1200 271.5953,383.1031 L266.1733,382.5008 L264.3645,382.5008 C260.4536,382.5008 257.1096,389.9420 264.9666,387.3229 Z" fill-rule="evenodd" /><path d="M261.9534,393.3472 L261.3512,393.9493 L261.3512,395.1560 L261.9534,395.7582 L263.1600,396.3603 L264.9666,396.9626 L266.1733,396.9626 L266.7754,396.9626 L267.3776,396.9626 L268.5820,396.3603 L269.7887,395.7582 L270.3908,394.5537 L270.3908,392.7449 L267.9799,392.7449 L261.9534,393.3472 Z" fill-rule="evenodd" /><path d="M396.9276,399.3736 C395.1031,404.8462 399.5163,414.8605 404.1584,410.2198 C404.1584,409.1511 403.4272,408.1538 402.9516,407.2065 C407.9036,407.2065 410.3601,406.7185 406.5670,400.5780 C405.2983,398.5241 404.6832,399.5994 399.9407,401.1800 L399.9407,399.3736 C399.1113,398.5473 399.7974,398.7714 397.5297,398.7714 L396.9276,399.3736 Z" fill-rule="evenodd" /><path d="M363.7868,454.2056 C368.3401,452.6840 375.9439,455.4377 380.6570,456.6144 L380.6570,459.6275 L380.0550,463.2429 L380.0550,465.6564 C371.0569,465.6564 363.7868,464.0235 363.7868,454.2056 Z Z M381.8638,449.9857 L381.2615,451.1924 L381.2615,452.3991 C377.0934,452.4379 371.7047,452.4885 367.8422,450.7174 L357.5935,446.9285 L375.8373,449.7655 L378.8853,449.2933 L382.4658,448.7838 L381.8638,449.9857 Z Z M421.0286,446.9748 C414.8749,453.1310 400.9134,464.4473 390.2989,464.4473 L390.9011,463.8452 C392.3950,462.7683 393.7776,462.1752 395.1186,460.8319 C395.1186,460.4313 394.7179,459.6275 395.1186,459.6275 C395.5217,459.6275 396.0404,459.9124 396.3253,459.6275 C396.5269,459.4284 396.9276,459.3104 396.9276,459.0255 C396.9276,457.6196 397.9211,455.8038 396.9276,454.8078 L396.3253,454.2056 C395.4730,453.3556 388.6638,457.0428 388.4901,457.2165 C387.1166,458.5877 385.4329,457.7724 384.2724,456.6144 L384.2724,454.8078 C384.2724,453.6289 382.9245,453.5989 385.4792,451.7947 C389.6690,448.8393 396.1608,458.5877 407.1693,447.5770 L408.3758,446.3727 C411.6809,443.0653 427.1037,434.8015 421.0286,446.9748 Z Z M320.4019,424.0757 L321.6087,424.6802 C326.6045,429.6760 332.4502,433.7129 337.2746,438.5374 L339.0811,439.1419 L340.2879,439.7440 L342.6965,440.9483 L343.2988,441.5506 L343.9033,442.1528 L343.9033,451.1924 C339.6462,451.1924 336.6493,450.5693 333.6592,447.5770 L333.6592,446.9748 C334.6760,443.9246 337.2746,442.4376 337.2746,439.1419 C330.2221,437.3794 326.5835,430.8619 321.6087,425.8847 L321.0042,425.2824 L320.4019,424.6802 L319.7997,423.4736 L320.4019,422.8738 L320.4019,424.0757 Z Z M342.6665,415.7309 L341.4922,415.0383 L340.2879,415.0383 L340.2879,409.0121 L341.4922,409.0121 C346.5482,409.0121 350.5296,403.9954 350.5296,409.0121 L351.7361,409.0121 L351.7361,415.6406 L349.3251,415.6406 L347.5163,416.2428 L347.5163,415.0383 L349.3251,415.0383 C357.6237,415.0383 348.0883,418.9294 342.6665,415.7309 Z Z M434.2696,424.7637 C433.4475,426.7600 429.5565,424.8863 428.2594,423.4736 C426.9625,422.0631 428.1714,406.7769 429.4639,404.1922 L430.0684,404.1922 L430.6704,404.7944 C434.0542,404.7944 436.6947,402.3231 436.6947,406.0011 C440.2568,409.5516 436.8568,418.4824 434.2696,424.7637 Z Z M404.1584,381.8976 L405.9649,381.2955 L406.5670,380.6932 L409.5803,380.6932 L410.1824,381.8976 L410.7847,382.4998 L411.3891,383.1021 L411.9912,383.7065 C429.9896,401.7071 420.4265,409.8898 420.4265,426.4868 L421.0286,427.0890 C431.2681,427.0890 429.0678,436.7309 427.0550,436.7309 L424.6440,436.7309 C422.5364,436.7309 422.2353,434.0325 422.2353,431.9111 L422.2353,428.9002 C421.3530,428.0201 420.8573,426.9199 419.2222,428.2957 C407.5444,438.1227 402.3077,447.9477 393.3122,448.1793 C377.7040,448.5846 413.7978,434.1599 413.7978,423.4736 C405.5004,450.1116 292.5388,416.5428 404.1584,381.8976 Z Z M429.4639,393.9482 C429.7742,392.4658 429.9594,390.6130 431.2727,390.3328 C434.7120,389.6010 437.2180,397.7003 434.8881,398.1657 L431.8748,398.7704 C430.2906,399.0899 429.1535,395.4305 429.4639,393.9482 Z Z M343.2988,366.8339 C344.3711,365.7638 342.2287,367.9062 343.2988,366.8339 Z Z M318.6927,372.4619 C312.6476,372.4619 295.7265,372.7538 296.3008,367.4360 C296.5209,365.3980 312.3419,370.4886 318.6302,372.0636 Z M343.9033,365.0273 C344.9732,363.9550 342.8308,366.0974 343.9033,365.0273 Z Z M390.2989,353.5813 L387.2857,353.5813 L386.6835,352.3722 C388.1959,352.3722 389.3369,351.7701 390.9011,351.7701 C390.9011,352.6900 390.9380,352.9372 390.2989,353.5813 Z Z M389.6968,346.3505 C387.9857,348.0548 379.2132,347.4300 377.0416,346.3505 C379.6780,345.0247 384.6900,345.3284 386.6835,343.3350 C388.4158,343.3350 389.6324,343.8732 390.9011,345.1414 L390.9011,345.7436 L389.6968,346.3505 Z Z M278.8260,342.7327 L277.6217,343.9371 L277.0171,344.5393 L276.4150,345.1414 C275.9702,346.9271 275.8430,348.8171 274.6084,346.3505 L274.6084,343.3350 L275.2107,341.5260 L275.8127,339.7196 L276.4150,338.5129 L279.4281,338.5129 L280.0304,339.1173 L281.2371,340.3241 L282.4414,340.9239 L283.6458,340.9239 L283.6458,342.1283 L282.4414,342.1283 L278.8260,342.7327 Z Z M378.8505,351.7701 L380.6570,351.7701 L380.6570,354.7832 C364.5301,354.7832 348.7230,337.8042 348.7230,322.2447 L349.3251,324.6558 C349.8189,328.6708 363.4496,344.0059 369.2086,348.1547 C372.4002,349.7481 375.8906,350.2901 378.8505,351.7701 Z Z M347.4329,318.0433 L347.4329,318.0433 Z Z M422.2353,321.6425 L421.6308,319.8337 L421.0286,318.6293 L420.4265,318.0271 L419.2222,318.0271 L418.6199,319.2314 C410.3811,343.2190 413.8808,335.4189 398.1319,351.1678 C397.2130,351.1678 396.9664,351.2066 396.3253,350.5658 L396.3253,348.7568 C415.9675,329.1146 406.9768,335.6027 415.0045,316.2183 L415.6066,315.6160 L418.0155,315.6160 L418.6199,316.8251 L419.2222,317.4250 L420.4265,317.4250 L421.0286,316.8251 L421.6308,314.4117 L422.2353,313.8096 L423.4397,313.2097 C424.3314,312.7627 424.8571,312.6029 425.8507,312.6029 C428.7180,315.4818 428.1297,321.9043 426.4530,325.2578 L424.6440,325.2578 C424.1044,323.6390 423.4513,322.8584 422.2353,321.6425 Z Z M331.8504,299.9501 C337.0105,301.4255 338.5879,318.6293 335.4658,318.6293 L333.6592,318.6293 C332.5428,318.6293 332.6285,317.0010 331.8504,316.2183 L330.6460,316.2183 C329.7172,317.1517 329.6617,318.5528 329.4415,319.8337 C327.2993,334.7955 315.3737,338.9412 302.9271,340.3241 L301.7227,340.9239 L301.1206,342.7327 L290.8766,342.7327 C290.8766,338.5036 287.4419,338.3043 284.2480,336.7087 C248.5614,318.8312 303.1611,256.3239 327.6327,305.3743 C328.4620,307.1971 328.3229,308.9875 330.6460,308.9875 L331.2481,308.3852 C331.2481,304.8902 327.7764,298.7874 329.4509,299.2645 L331.8504,299.9501 Z Z M386.6835,294.5281 C386.6835,299.2250 396.7428,308.3852 401.7473,308.3852 L401.7473,305.9766 L401.1451,304.7698 C399.0701,302.6990 392.6638,297.4342 393.3122,296.3347 L394.5165,295.1304 C400.5968,293.1060 400.5597,292.7357 404.7604,296.9370 C410.2067,307.8484 399.6686,313.5032 409.5803,323.4514 C412.6278,329.5474 402.4548,338.4075 398.7340,342.1283 L398.1319,342.7327 L397.5297,343.3350 L395.1186,343.9371 L395.1186,342.7327 L394.5165,341.5260 L393.9143,340.9239 C391.5241,339.7310 387.9782,334.8975 385.4792,334.8975 L384.8769,334.8975 C378.7811,337.9523 377.0879,343.9533 368.0043,340.9239 L368.0043,340.3241 C371.2398,340.3241 372.8240,337.8435 372.8240,335.5019 C366.2488,332.2039 368.0043,327.2730 368.0043,319.8337 L367.4022,319.2314 C358.7597,319.2314 363.2155,309.3064 364.9911,310.1942 L367.4022,310.1942 L368.0043,309.5919 L368.0043,307.1833 C363.6929,302.8546 391.1203,294.9090 369.2086,292.7193 L369.2086,291.5150 C377.0311,291.5150 378.8189,293.6577 385.4792,290.3083 L390.9011,289.1039 C391.7048,288.9031 393.0459,288.4060 393.3122,288.5017 C393.5785,288.5973 388.0292,291.8320 386.6835,294.5281 Z Z M354.1450,308.3852 C352.2897,312.1026 349.3784,313.3672 347.4491,316.8181 C349.0518,305.3304 352.9266,288.2284 364.3889,282.4752 L365.5932,281.2709 C369.9151,279.1147 369.8109,279.7979 369.8109,284.8863 C363.0711,291.6262 356.4448,296.8813 354.1450,308.3852 Z Z M416.8111,305.9766 L416.8111,308.9875 L415.6066,308.9875 L414.4001,308.3852 L413.1957,307.1833 C411.8660,301.8541 408.9924,294.2330 404.7604,292.1171 C383.8381,271.1947 414.5080,294.4531 416.8111,305.9766 Z Z M381.2615,279.4643 L380.6570,280.6688 L377.0416,281.2709 L376.4396,281.2709 C373.0975,277.9288 379.2443,277.0534 381.8638,277.0534 L381.8638,278.8598 L381.2615,279.4643 Z Z M407.7738,266.2071 L407.8038,264.9124 C410.2473,266.3553 412.3064,273.0766 415.6066,277.6579 C416.6745,279.1379 417.5268,278.4082 418.6083,280.7498 C413.2512,279.2259 414.6756,277.9242 411.3891,274.6424 C410.8171,274.0726 407.7738,267.6663 407.7738,266.2071 Z Z M364.9911,263.1939 C356.3294,262.6168 351.2008,258.3742 361.9778,258.3742 C371.9932,259.0889 375.7909,263.1939 364.9911,263.1939 Z Z M353.5427,267.4116 C373.9066,269.8834 395.3543,269.2132 403.6765,258.9136 C402.3427,263.3583 403.7693,271.5710 405.3627,275.8489 C406.2242,277.0486 406.6828,277.7713 407.7738,278.8598 L411.9912,284.2842 C415.4281,289.8524 417.7685,288.8964 423.4397,289.7060 L425.2462,289.7060 L425.2462,292.1171 L425.8507,295.1304 C428.0876,317.5053 413.1566,289.0911 406.5670,282.4752 L404.7604,282.4752 C404.7604,267.5805 343.9033,263.2264 343.9033,322.8470 C350.1984,366.9403 375.2629,357.0855 401.1451,361.4119 L401.7473,362.0140 L401.7473,362.6163 C396.1480,365.4162 382.5393,364.3494 378.8505,368.0382 C378.8505,372.5239 398.6310,368.3223 401.7473,368.0382 L401.7473,369.8494 C390.5829,369.8494 375.9389,373.1769 364.3889,374.0647 L349.9273,374.0647 L345.1076,374.6668 L345.1076,376.4758 L346.3119,377.6801 L366.1955,377.6801 C378.2766,377.1552 390.9401,375.2690 402.9516,375.2690 L402.9516,377.6801 C383.6799,387.3180 359.6131,379.0738 338.9954,381.8815 C340.2879,378.5162 344.5053,376.0680 344.5053,371.6536 L345.7097,371.6536 L346.3119,370.4493 L347.5163,370.4493 C353.3714,371.9131 365.0815,373.3721 369.2086,369.2450 C369.2086,368.2027 368.4074,366.9335 367.4022,366.8339 C360.9380,366.1946 354.5711,366.8824 348.0304,366.8037 C349.1746,364.8628 351.7361,363.6747 351.7361,361.4119 L351.7361,357.7965 C351.7361,349.5698 327.0306,342.7165 327.0306,354.1811 C328.0102,360.0686 329.8330,360.8143 334.8635,357.7965 C337.2329,356.3768 333.6616,356.6060 332.4524,354.1811 L331.8504,352.9744 C330.3101,349.8872 344.8690,352.8610 346.9142,359.0009 L345.7097,359.0009 C344.5865,360.1265 345.1030,362.9521 345.0775,364.5132 L343.9033,363.8206 C343.3010,363.4199 343.8730,362.8246 342.0943,362.6163 C340.3155,362.4101 339.0788,368.6427 337.2746,368.6427 L335.4658,368.6427 C333.7241,368.6427 336.1999,360.2076 334.8635,360.2076 L332.4524,360.2076 C328.5522,360.2076 330.0438,366.7644 330.0438,370.4493 L328.8371,371.0514 L328.8371,371.6536 L329.4415,372.8604 L330.0438,373.4648 L332.4524,374.0647 L334.8635,374.6668 L336.6725,375.2690 L337.2746,376.4758 C328.3033,376.4758 334.5202,381.0427 333.6592,382.4998 L328.2350,382.4998 L328.2350,384.3086 L328.8371,384.9109 L329.4415,386.1176 L330.0438,391.5394 L330.0438,392.1417 C328.8903,401.3666 329.6593,411.2216 319.1976,413.8340 L317.9933,415.0383 L317.3888,415.6406 C310.2169,423.1240 294.6351,377.7638 326.4284,387.9240 L326.4284,386.1176 L325.8261,385.5131 L323.4152,384.9109 L319.1976,384.3086 L312.5689,383.7065 L310.7625,383.1021 L310.1578,382.4998 L311.3646,381.8976 L312.5689,381.2955 L312.5689,380.0911 L311.9668,379.4867 L311.3646,378.8844 L306.5425,378.2822 L304.7360,377.6801 L301.1206,377.0778 L299.3117,376.4758 L316.1843,375.8759 L321.6087,375.8759 L322.2107,375.2690 L322.2107,372.8604 C328.8582,371.1984 328.2350,366.5022 328.2350,360.2076 L327.6327,359.6031 L325.8261,359.6031 L325.8261,360.8075 L324.5292,360.7772 L325.2217,359.6031 L325.2217,359.0009 L324.0173,357.7965 L323.4152,357.1921 L309.5558,357.1921 L301.1206,355.9877 L297.5053,355.3855 L296.9030,354.7832 L296.3008,353.5813 L296.3008,351.1678 L296.9030,350.5658 C304.6470,347.1837 320.1095,353.0786 325.2217,349.9659 C330.8448,346.5420 314.5617,347.3429 308.9535,344.5393 C327.3502,344.5393 340.9525,330.6173 339.6832,310.1942 C338.6745,303.9107 330.9852,293.5230 324.9181,289.1039 C285.4518,275.7241 295.2554,255.9971 318.5952,245.8301 C324.0429,256.8541 332.3341,264.3709 343.2059,269.5907 L344.7255,270.4570 L347.9332,271.2143 C384.5821,274.5389 343.8764,267.7833 338.4789,263.7962 C334.8543,261.5518 326.1747,256.5652 331.2481,256.5652 C335.0736,256.5652 337.0301,261.5711 339.6832,263.7962 C344.2970,265.2993 348.8642,266.2441 353.5427,267.4116 Z Z M344.4937,260.2642 L342.0943,259.5785 C340.8204,259.2381 339.6624,258.9671 338.4789,258.3742 C337.6891,256.0048 335.8873,249.8487 340.8900,252.3478 C343.0139,253.4108 341.7771,253.0959 343.9033,254.1590 L344.4937,260.2642 Z Z M329.4415,252.9498 L329.4415,242.7081 L330.7224,242.7129 C330.5424,243.6713 330.7161,260.8960 329.4415,252.9498 Z Z M378.8505,238.4907 L378.8505,234.2708 L381.2615,234.2708 C381.2615,240.1212 385.8706,239.6696 390.9011,240.2973 C393.9397,243.3382 396.3832,249.2766 392.7099,252.9498 C367.8816,257.3204 319.7858,249.8325 339.0811,237.8862 L340.8900,237.2839 L340.8900,240.2973 C340.8900,246.4696 358.6982,238.0900 360.7735,231.8620 L364.3889,231.8620 C360.3034,233.9048 359.8611,238.4907 378.8505,238.4907 Z Z M272.7996,294.5281 C266.5600,306.7640 261.8977,322.2285 273.4041,333.6931 C273.4041,347.8674 261.4161,349.3498 286.6589,357.7965 L287.2612,358.3986 L287.2612,359.6031 L286.6589,360.2076 L286.6589,361.4119 L287.2612,362.6163 L287.8634,363.2185 L288.4679,363.8206 L290.2743,364.4229 L291.4788,365.0273 L292.6854,365.6296 L293.2876,366.8339 L292.0833,366.8339 L291.4788,368.0382 C291.4788,384.4430 293.3108,384.9016 278.8260,392.1417 L278.2238,392.7439 C278.2238,397.9712 289.9363,394.7797 290.8766,400.5768 C290.8766,425.0793 304.3785,406.1311 304.7360,407.2055 C305.9269,421.5082 320.9707,430.6747 331.2481,440.9483 L331.8411,442.8383 C326.5141,441.3166 308.5205,426.0538 329.4415,446.9748 L330.6460,449.3836 C332.6864,453.4714 335.8086,455.8825 339.6832,457.8187 L340.2879,458.4256 L340.2879,459.0255 L339.6832,459.0255 C304.1963,447.1996 297.1300,399.8681 256.4457,399.3586 L257.1335,397.5636 L257.1335,394.5527 L256.5314,393.9482 L255.9292,393.9482 C250.6763,399.2220 246.8804,402.8350 249.3007,410.2186 C254.4724,426.0051 282.4693,432.5156 296.9030,432.5156 C296.9030,419.2814 267.5605,406.0220 257.7358,404.7944 L257.7358,404.1922 L258.9425,403.5901 C282.6430,396.1415 323.1742,464.2459 340.8900,463.8452 L342.6965,464.4473 L343.9033,465.0495 C374.8484,480.5371 402.4467,468.3383 408.9781,463.8452 C415.5094,459.3542 454.2876,439.5587 436.0924,366.2340 L435.4902,364.4229 L434.2858,363.8206 L432.4770,363.8206 C432.4770,377.4049 430.0684,375.8503 430.0684,363.2185 C425.6283,358.7971 422.9904,368.0058 422.8376,369.2450 L422.8376,370.4493 L421.6308,370.4493 C399.2713,392.8086 412.1511,345.5838 421.0286,336.7087 L421.0286,335.5019 C425.4269,335.5019 428.2317,334.1123 429.4639,329.4755 C432.6323,317.5524 435.2309,294.8709 424.6440,284.2842 C424.6440,280.6318 425.5913,278.8252 425.2462,274.6424 C425.0587,272.3633 420.4912,259.0482 417.4132,257.7744 C417.0125,257.7744 416.2089,258.1751 416.2089,257.7744 L416.2089,256.5652 C416.2089,252.8805 406.5346,256.2597 402.9516,251.7455 C399.6071,246.3492 403.6649,242.5068 393.9143,235.4774 C373.4471,219.4362 334.6806,233.9488 334.2614,233.6686 L333.6592,233.0663 C305.4030,233.0663 276.4172,269.2759 272.7996,294.5281 Z" fill-rule="evenodd" /><path d="M571.7429,372.2651 L528.7981,372.2651 C525.9216,362.8525 524.4833,354.7462 524.4833,347.9485 L524.4833,328.7320 C524.4833,321.0195 523.3739,315.2663 521.1504,311.4749 C518.2739,306.7687 513.1762,304.4155 505.8551,304.4155 L498.9925,304.4155 L498.9925,372.2651 L459.3806,372.2651 L459.3806,231.0769 L517.6207,231.0769 C531.0864,231.0769 542.3935,233.7566 551.5467,239.1160 C562.6569,245.6520 568.2132,255.1965 568.2132,267.7450 C568.2132,285.0021 558.4741,296.1147 538.9958,301.0827 C545.0084,303.4358 549.3881,305.4624 552.1349,307.1624 C557.6241,310.5601 561.2186,315.5281 562.9186,322.0640 C563.8335,325.7258 564.2920,332.0000 564.2920,340.8891 C564.2920,354.0931 566.7749,364.5525 571.7429,372.2651 Z Z M529.3864,268.3333 C529.3864,252.1231 521.8036,244.0191 506.6402,244.0191 L498.9925,244.0191 L498.9925,292.8467 L506.6402,292.8467 C521.8036,292.8467 529.3864,284.6756 529.3864,268.3333 Z Z M683.9106,245.1957 L650.3784,245.1957 L650.3784,372.2651 L608.6102,372.2651 L608.6102,245.1957 L575.2726,245.1957 L575.2726,231.0769 L683.9106,231.0769 L683.9106,245.1957 Z Z M790.5869,372.2651 L693.9114,372.2651 L693.9114,231.0769 L782.3509,231.0769 L782.3509,245.1957 L733.5233,245.1957 L733.5233,289.1201 L772.3501,289.1201 L772.3501,301.8678 L733.5233,301.8678 L733.5233,358.1462 L790.5869,358.1462 L790.5869,372.2651 Z Z M909.4203,372.2651 L865.2990,372.2651 L839.4145,322.6523 L810.3917,372.2651 L792.5486,372.2651 L831.1785,307.7507 L789.9986,231.0769 L833.7285,231.0769 L857.8482,277.1599 L884.3209,231.0769 L901.3812,231.0769 L866.0841,291.6701 L909.4203,372.2651 Z Z M1016.0966,372.2651 L919.4211,372.2651 L919.4211,231.0769 L1007.8606,231.0769 L1007.8606,245.1957 L959.0330,245.1957 L959.0330,289.1201 L997.8598,289.1201 L997.8598,301.8678 L959.0330,301.8678 L959.0330,358.1462 L1016.0966,358.1462 L1016.0966,372.2651 Z" fill-rule="evenodd" /><path d="M206.0062,345.5791 C206.2030,351.2621 206.3003,354.7171 206.3003,355.9440 C206.3003,356.7139 206.0386,357.0975 205.5151,357.0975 C204.7323,357.2499 203.2940,356.5589 201.2026,355.0245 C199.1112,353.4875 196.7233,351.4906 194.0436,349.0341 C191.3639,346.5775 188.5221,343.8897 185.5135,340.9733 C182.5072,338.0543 179.6978,335.2141 177.0830,332.4501 C174.4681,329.6861 172.2447,327.3057 170.4150,325.3116 C168.5853,323.3148 167.4735,322.0089 167.0821,321.3941 C162.7673,315.2513 159.4020,309.6471 156.9817,304.5816 C154.5637,299.5134 152.7989,294.8288 151.6871,290.5304 C150.5777,286.2294 149.8899,282.3146 149.6281,278.7835 C149.3664,275.2523 149.2367,271.8735 149.2367,268.6497 C149.2367,262.3518 150.1516,257.4387 151.9813,253.9075 C153.8133,250.3763 156.4258,248.1483 159.8258,247.2260 C161.2641,246.7663 161.9821,245.8440 161.9821,244.4620 C161.9821,241.5457 160.5438,238.8960 157.6696,236.5156 C154.7930,234.1379 151.7196,232.9463 148.4516,232.9463 C143.3539,232.9463 139.4652,235.0574 136.7855,239.2796 C134.1035,243.5044 132.7648,249.6064 132.7648,257.5910 C132.8945,264.0412 133.9413,270.6057 135.9031,277.2872 C137.8625,283.9659 140.4773,290.5304 143.7453,296.9807 C147.0133,303.4282 150.8371,309.7233 155.2168,315.8661 C159.5966,322.0089 164.2056,327.6893 169.0415,332.9126 C177.9330,341.9717 185.7752,349.4585 192.5729,355.3700 C199.3706,361.2816 205.1237,365.9635 209.8300,369.4185 C214.5363,372.8735 218.1308,375.2539 220.6160,376.5597 C223.0988,377.8656 224.4723,378.5185 224.7340,378.5185 C225.6488,378.5185 226.1167,377.8248 226.1051,376.4455 C223.6825,98.7049 620.2856,54.5300 616.7698,54.4211 C451.8557,49.3203 198.1292,118.1862 206.0062,345.5791 Z" fill-rule="evenodd" /><path d="M1034.1100,623.2974 C938.6028,748.9559 498.2613,774.2951 350.9330,633.6859 C556.9012,719.8711 857.4683,704.1892 1034.1100,623.2974 Z" fill-rule="evenodd" /><path d="M850.1069,785.8963 C836.9693,805.7650 828.0392,813.3401 793.1889,831.0261 C767.0395,844.2981 726.2186,852.8117 688.3525,852.1214 C605.3825,850.6085 543.3231,827.9845 519.9347,791.8701 C564.5675,814.9721 616.6066,819.4950 690.6523,819.0298 C764.6980,818.5647 807.6388,804.5366 850.1069,785.8963 Z" fill-rule="evenodd" /><path d="M1032.5486,292.6108 C988.1118,280.0728 1043.5708,206.7937 1088.7495,234.9012 C1090.2511,235.8348 1090.7587,237.5068 1091.1563,238.8096 C1091.5539,240.1088 1091.7562,241.1631 1091.7562,241.9654 C1091.7562,242.1677 1091.4048,243.1191 1090.7055,244.8195 C1090.0026,246.5234 1089.1507,248.3267 1088.1496,250.2294 C1087.1485,252.1357 1086.0446,253.8893 1084.8447,255.4903 C1083.6413,257.0948 1082.6403,257.8935 1081.8380,257.8935 C1080.2335,257.8935 1079.4348,257.1942 1079.4348,255.7920 C1079.4348,251.7842 1077.6315,248.3764 1074.0248,245.5720 C1070.4182,242.7677 1065.6082,241.3655 1059.5983,241.3655 C1056.3893,241.5643 1053.8866,242.1677 1052.0833,243.1688 C1050.2800,244.1698 1048.8778,245.4229 1047.8768,246.9245 C1046.8722,248.4261 1046.1232,250.1797 1045.6226,252.1854 C1045.1186,254.1875 1044.6677,256.1931 1044.2702,258.1952 C1044.2702,263.6052 1046.8899,268.9157 1052.0833,274.1269 C1302.5877,348.4852 1140.2540,523.0906 886.8281,579.4513 C764.8985,606.5685 571.1133,600.3669 508.7179,569.7745 C960.9592,644.4558 1304.4904,369.3582 1032.5486,292.6108 Z" fill-rule="evenodd" /></svg>